<svg width="335" height="60" viewBox="0 0 335 60" fill="none" xmlns="http://www.w3.org/2000/svg">
<path d="M335 0H280.87C278.42 0.7 276.75 1.21 274.28 0H232.77C192.13 0.42 155.17 2.07 116.68 0H63.33C66.5953 1.09089 70.124 1.10841 73.4 0.05C70.124 1.10841 66.5953 1.09089 63.33 0H0V5.42C1.09 6.7 1 9.05 0 9.2V21.59C0.63 34.86 1 47.76 0.32 59.79L17.15 60C18.42 58.47 22.07 59.22 22.44 60H83.5C89.14 59.65 94.78 59.35 100.43 59C100.438 58.6134 100.532 58.2334 100.705 57.8875C100.878 57.5416 101.126 57.2385 101.43 57C101.43 56 102.43 57 102.43 59C133.2 60 162.33 59.63 192.55 59.45C199.493 58.8531 206.468 58.7028 213.43 59C214.86 59.09 216.32 59.22 217.8 59.38C231.36 59.38 245.27 59.53 259.8 59.92C261.708 59.1592 263.559 58.2636 265.34 57.24C265.24 60.45 266.86 59.95 270.34 59.95H335V55.37C334.28 52.96 334.21 22.09 335 19.37V12.5L333.4 10.05L335 8.16V0Z" fill="#797979"/>
</svg>
